<svg width="100" height="100" viewBox="0 0 100 100" xmlns="http://www.w3.org/2000/svg">
  <rect width="100" height="100" rx="24" fill="#6B8E6F"/>
  <path d="M50 14 C72 20, 84 38, 78 58 C72 74, 62 82, 50 82 C38 82, 28 74, 22 58 C16 38, 28 20, 50 14 Z" fill="#FFFAF0"/>
  <path d="M50 18 L50 80" stroke="#6B8E6F" stroke-width="2.8" stroke-linecap="round" fill="none"/>
  <path d="M50 32 C59 35, 65 42, 63 50" stroke="#6B8E6F" stroke-width="1.8" stroke-linecap="round" fill="none"/>
  <path d="M50 47 C58 50, 63 57, 60 65" stroke="#6B8E6F" stroke-width="1.8" stroke-linecap="round" fill="none"/>
  <path d="M50 32 C41 35, 35 42, 37 50" stroke="#6B8E6F" stroke-width="1.8" stroke-linecap="round" fill="none"/>
  <path d="M50 47 C42 50, 37 57, 40 65" stroke="#6B8E6F" stroke-width="1.8" stroke-linecap="round" fill="none"/>
  <path d="M50 82 C50 88, 47 91, 46 93" stroke="#FFFAF0" stroke-width="2.5" stroke-linecap="round" fill="none" opacity="0.6"/>
</svg>